<?xml version="1.0" standalone="no"?>
<!DOCTYPE svg PUBLIC "-//W3C//DTD SVG 20001102//EN" "http://www.w3.org/TR/2000/CR-SVG-20001102/DTD/svg-20001102.dtd">
<svg xmlns="http://www.w3.org/2000/svg" width="372" x="0" y="0" height="152" id="/tmp/play_with_uml/KP - Generalization" >
 <rect width="372" x="52" y="22" height="152" transform="translate(-52,-22)" style="stroke:rgb(0,0,0);stroke-width:0;fill:rgb(255,255,255);" />
 <line transform="translate(-52,-22)" style="stroke:rgb(255,0,0);stroke-width:0.9;fill:none;" y1="127" y2="88" x1="350" x2="270" />
 <line transform="translate(-52,-22)" style="stroke:rgb(255,0,0);stroke-width:0.9;fill:none;" y1="127" y2="88" x1="130" x2="230" />
 <polygon points="230 88 217 86 222 98 230 88" transform="translate(-52,-22)" style="stroke:rgb(0,0,0);stroke-width:0;fill:rgb(255,255,255);" />
 <polygon points="270 88 277 99 283 87 270 88" transform="translate(-52,-22)" style="stroke:rgb(0,0,0);stroke-width:0;fill:rgb(255,255,255);" />
 <line transform="translate(-52,-22)" style="stroke:rgb(255,0,0);stroke-width:0.9;fill:none;" y1="88" y2="86" x1="230" x2="217" />
 <line transform="translate(-52,-22)" style="stroke:rgb(255,0,0);stroke-width:0.9;fill:none;" y1="86" y2="98" x1="217" x2="222" />
 <line transform="translate(-52,-22)" style="stroke:rgb(255,0,0);stroke-width:0.9;fill:none;" y1="88" y2="98" x1="230" x2="222" />
 <line transform="translate(-52,-22)" style="stroke:rgb(255,0,0);stroke-width:0.9;fill:none;" y1="88" y2="87" x1="270" x2="283" />
 <line transform="translate(-52,-22)" style="stroke:rgb(255,0,0);stroke-width:0.9;fill:none;" y1="99" y2="87" x1="277" x2="283" />
 <line transform="translate(-52,-22)" style="stroke:rgb(255,0,0);stroke-width:0.9;fill:none;" y1="88" y2="99" x1="270" x2="277" />
 <rect width="138" x="179" y="22" height="66" transform="translate(-52,-22)" style="stroke:rgb(255,0,0);stroke-width:0.9;fill:rgb(255,255,192);" />
 <text x="248" y="38" transform="translate(-52,-22)" style="fill:rgb(0,0,0);stroke-width:0;font-size:11;font-style:normal;font-weight:700;font-family:Arial;" text-anchor="middle" >Person</text>
 <line transform="translate(-52,-22)" style="stroke:rgb(255,0,0);stroke-width:0.9;fill:rgb(255,255,192);" y1="41" y2="41" x1="179" x2="316" />
 <text x="184" y="57" transform="translate(-52,-22)" style="fill:rgb(0,0,0);stroke-width:0;font-size:11;font-style:normal;font-weight:400;font-family:Arial;" >+ name : string</text>
 <text x="184" y="76" transform="translate(-52,-22)" style="fill:rgb(0,0,0);stroke-width:0;font-size:11;font-style:normal;font-weight:400;font-family:Arial;" >+ age : int = 0</text>
 <line transform="translate(-52,-22)" style="stroke:rgb(255,0,0);stroke-width:0.9;fill:rgb(255,255,192);" y1="79" y2="79" x1="179" x2="316" />
 <rect width="156" x="52" y="127" height="47" transform="translate(-52,-22)" style="stroke:rgb(255,0,0);stroke-width:0.9;fill:rgb(255,255,192);" />
 <text x="130" y="143" transform="translate(-52,-22)" style="fill:rgb(0,0,0);stroke-width:0;font-size:11;font-style:normal;font-weight:700;font-family:Arial;" text-anchor="middle" >Student</text>
 <line transform="translate(-52,-22)" style="stroke:rgb(255,0,0);stroke-width:0.9;fill:rgb(255,255,192);" y1="146" y2="146" x1="52" x2="207" />
 <text x="57" y="162" transform="translate(-52,-22)" style="fill:rgb(0,0,0);stroke-width:0;font-size:11;font-style:normal;font-weight:400;font-family:Arial;" >+ grades : list</text>
 <line transform="translate(-52,-22)" style="stroke:rgb(255,0,0);stroke-width:0.9;fill:rgb(255,255,192);" y1="165" y2="165" x1="52" x2="207" />
 <rect width="148" x="276" y="127" height="47" transform="translate(-52,-22)" style="stroke:rgb(255,0,0);stroke-width:0.9;fill:rgb(255,255,192);" />
 <text x="350" y="143" transform="translate(-52,-22)" style="fill:rgb(0,0,0);stroke-width:0;font-size:11;font-style:normal;font-weight:700;font-family:Arial;" text-anchor="middle" >Professor</text>
 <line transform="translate(-52,-22)" style="stroke:rgb(255,0,0);stroke-width:0.9;fill:rgb(255,255,192);" y1="146" y2="146" x1="276" x2="423" />
 <text x="281" y="162" transform="translate(-52,-22)" style="fill:rgb(0,0,0);stroke-width:0;font-size:11;font-style:normal;font-weight:400;font-family:Arial;" >+ listOfStudents : list</text>
 <line transform="translate(-52,-22)" style="stroke:rgb(255,0,0);stroke-width:0.9;fill:rgb(255,255,192);" y1="165" y2="165" x1="276" x2="423" />
</svg>
